<svg width="30" height="33" viewBox="0 0 30 33" fill="none" xmlns="http://www.w3.org/2000/svg">
<path d="M29.4976 32.7602L25.992 29.6701L24.0161 27.8331L21.9268 25.8932L22.7852 28.913H4.29929C3.41022 28.9098 2.55877 28.5538 1.93203 27.9232C1.30528 27.2926 0.954517 26.4389 0.956798 25.5499V3.50175C0.955428 2.61327 1.3066 1.76053 1.93324 1.13067C2.55988 0.500804 3.41081 0.145272 4.29929 0.14209H26.1551C27.0436 0.145272 27.8945 0.500804 28.5212 1.13067C29.1478 1.76053 29.499 2.61327 29.4976 3.50175V32.7602ZM21.7294 18.1816C21.0055 19.1525 19.9633 19.8379 18.7852 20.1181C19.2693 20.7361 19.853 21.4348 19.8581 21.4417C20.8283 21.4622 21.7891 21.2474 22.6582 20.8157C23.5273 20.384 24.2789 19.7482 24.8487 18.9627C24.7895 15.6575 23.9868 12.408 22.5002 9.45541C21.1914 8.4284 19.5983 7.82903 17.9371 7.73867H17.9182L17.6899 7.99962C19.1737 8.39816 20.5574 9.10348 21.7517 10.07C20.2321 9.23465 18.5645 8.70289 16.8418 8.50434C15.7469 8.38274 14.6414 8.39369 13.5491 8.53696C13.4719 8.53849 13.3949 8.54653 13.3191 8.56099H13.271C11.9909 8.70838 10.7419 9.05597 9.56969 9.59104C8.98257 9.86057 8.62205 10.0563 8.6066 10.0631C8.59115 10.07 8.6066 10.0631 8.6066 10.0511C9.87355 9.05541 11.3362 8.33438 12.8967 7.93781L12.7251 7.74211H12.7148C11.0536 7.83268 9.46056 8.43203 8.15166 9.45885C6.65965 12.4095 5.85666 15.6602 5.80316 18.9662C6.3656 19.7565 7.11404 20.396 7.98235 20.8284C8.85066 21.2608 9.8121 21.4726 10.7817 21.4451C10.7817 21.4451 11.3963 20.6966 11.8753 20.0906C10.7268 19.802 9.71479 19.1221 9.01347 18.1679C9.02548 18.1765 9.19544 18.2915 9.47012 18.4426C9.48729 18.4649 9.51132 18.482 9.53707 18.4941C9.55879 18.5092 9.58177 18.5224 9.60574 18.5335C10.0124 18.7634 10.4359 18.9619 10.8727 19.1275C11.6504 19.4366 12.4555 19.6717 13.2761 19.8314C13.9955 19.967 14.7251 20.0374 15.4564 20.0374C16.1431 20.0374 16.8264 19.9739 17.501 19.8486C18.3131 19.7061 19.1062 19.4709 19.865 19.1481C20.5204 18.8961 21.1457 18.5719 21.7294 18.1816ZM18.2307 17.4486C17.8653 17.4807 17.4987 17.4018 17.179 17.222C16.8593 17.0422 16.6014 16.77 16.4391 16.441C16.2768 16.1121 16.2177 15.7418 16.2695 15.3787C16.3213 15.0156 16.4817 14.6766 16.7295 14.4062C16.9773 14.1359 17.3011 13.9467 17.6583 13.8635C18.0156 13.7803 18.3896 13.807 18.7314 13.9401C19.0732 14.0733 19.3668 14.3065 19.5736 14.6094C19.7805 14.9123 19.8911 15.2706 19.8907 15.6374C19.9285 16.5953 19.1869 17.4056 18.2289 17.4486H18.2307ZM12.277 17.4486C11.8239 17.4091 11.402 17.2012 11.0947 16.8659C10.7873 16.5306 10.6168 16.0922 10.6168 15.6374C10.6168 15.1826 10.7873 14.7442 11.0947 14.4089C11.402 14.0736 11.8239 13.8657 12.277 13.8262C12.7096 13.8262 13.1233 14.0048 13.4238 14.3155C13.7654 14.6692 13.9508 15.1447 13.9388 15.6357C13.9579 16.0965 13.7935 16.5461 13.4817 16.8859C13.1699 17.2257 12.736 17.4281 12.2753 17.4486H12.277Z" fill="white"/>
</svg>
