<svg width="18" height="33" viewBox="0 0 18 33" fill="none" xmlns="http://www.w3.org/2000/svg">
<path d="M4.41683 6.45298V10.9202H0.868103V16.4511H4.41683V32.7602H11.5898V16.4511H16.4976C16.7996 14.7021 17.001 12.8584 17.1016 10.9202H11.6653V7.16207C11.6653 6.87844 11.8289 6.58298 12.1561 6.27571C12.4833 5.96844 12.8482 5.8148 13.2509 5.8148H17.1772V0.14209H11.8163C10.4069 0.14209 9.18622 0.342998 8.15432 0.744816C7.12242 1.14663 6.37996 1.59572 5.92693 2.09208C5.4739 2.58845 5.12154 3.19117 4.86986 3.90026C4.61818 4.60935 4.47975 5.11753 4.45458 5.4248C4.42941 5.73208 4.41683 6.0748 4.41683 6.45298Z" fill="white"/>
</svg>
