<svg width="35" height="35" viewBox="0 0 35 35" fill="none" xmlns="http://www.w3.org/2000/svg">
<path fill-rule="evenodd" clip-rule="evenodd" d="M17 3.32492e-08C12.491 0.000281826 8.16686 1.79173 4.97874 4.98025C1.79063 8.16876 -0.000281759 12.4932 3.32492e-08 17.0021C0.000281826 21.5111 1.79173 25.8353 4.98025 29.0234C8.16876 32.2115 12.4932 34.0024 17.0021 34.0021C21.5111 34.0018 25.8353 32.2104 29.0234 29.0219C32.2115 25.8334 34.0024 21.509 34.0021 17C34.0018 12.491 32.2104 8.16686 29.0219 4.97874C25.8334 1.79063 21.509 -0.000281759 17 3.32492e-08V3.32492e-08ZM16.898 31.875C12.9529 31.875 9.16939 30.3078 6.37979 27.5182C3.59018 24.7286 2.023 20.9451 2.023 17C2.023 13.0549 3.59018 9.27139 6.37979 6.48179C9.16939 3.69218 12.9529 2.125 16.898 2.125C20.8431 2.125 24.6266 3.69218 27.4162 6.48179C30.2058 9.27139 31.773 13.0549 31.773 17C31.773 20.9451 30.2058 24.7286 27.4162 27.5182C24.6266 30.3078 20.8431 31.875 16.898 31.875Z" fill="#FF048C"/>
<path fill-rule="evenodd" clip-rule="evenodd" d="M6.18609 5.70334C5.61234 8.55934 7.74797 12.9262 12.2891 13.9887C16.8281 15.0512 14.8773 14.1672 14.1718 12.7498C13.4621 11.3325 14.0975 10.27 15.1961 9.91721C16.2968 9.56234 16.0185 10.5398 17.6505 8.49984C18.0627 4.24984 14.5225 8.44246 14.1697 6.67234C17.676 2.59871 12.542 1.06234 11.0523 1.59359C9.56272 2.12484 6.75984 2.84521 6.18609 5.70334Z" fill="#FF048C"/>
<path fill-rule="evenodd" clip-rule="evenodd" d="M14.5027 16.3495C14.2392 16.4664 13.0109 17.2335 12.588 17.7647C12.1652 18.296 11.9803 19.418 12.588 19.8897C13.1958 20.3636 12.554 22.6076 14.1924 23.0199C15.8308 23.4321 17.4713 23.6722 17.5329 24.9685C17.5903 26.2647 17.3799 29.2759 16.5915 29.5734C17.654 30.162 20.2402 27.034 21.1497 25.3807C22.0613 23.7296 22.3652 21.3666 22.3035 20.7759C22.2419 20.1872 22.6669 18.9484 22.8497 17.3546C23.0303 15.7609 21.6384 15.6546 21.4578 14.947C21.2729 14.2372 21.0264 13.4574 14.5027 16.3495Z" fill="#FF048C"/>
<path fill-rule="evenodd" clip-rule="evenodd" d="M27.7882 8.5C27.7882 8.5 23.5127 10.3296 26.4197 13.0475C29.3225 15.7611 30.8015 18.3387 30.6591 18.9295C30.5273 19.516 27.7266 22.5547 29.3352 22.3167C30.9523 22.0809 32.1445 18.8934 32.4016 17.0021C32.6545 15.1109 30.4381 11.3942 30.3467 11.101C30.2702 10.8014 28.8125 8.53187 27.7882 8.5Z" fill="#FF048C"/>
</svg>
