<svg width="34" height="33" viewBox="0 0 34 33" fill="none" xmlns="http://www.w3.org/2000/svg">
<path fill-rule="evenodd" clip-rule="evenodd" d="M10.1907 0.239944C11.9299 0.159882 12.4844 0.14209 16.9145 0.14209C21.3446 0.14209 21.8992 0.161364 23.6368 0.239944C25.3745 0.318524 26.5606 0.595778 27.5984 0.997574C28.6852 1.40827 29.6712 2.05025 30.4866 2.88053C31.3169 3.6945 31.9574 4.67897 32.3666 5.76723C32.7699 6.80508 33.0456 7.99119 33.1257 9.72588C33.2058 11.468 33.2236 12.0225 33.2236 16.4511C33.2236 20.8813 33.2043 21.4358 33.1257 23.1749C33.0471 24.9096 32.7699 26.0957 32.3666 27.1336C31.9574 28.222 31.3158 29.2081 30.4866 30.0232C29.6712 30.8535 28.6852 31.494 27.5984 31.9032C26.5606 32.3065 25.3745 32.5823 23.6398 32.6623C21.8992 32.7424 21.3446 32.7602 16.9145 32.7602C12.4844 32.7602 11.9299 32.7409 10.1907 32.6623C8.45605 32.5838 7.26994 32.3065 6.23209 31.9032C5.14371 31.494 4.15761 30.8524 3.34242 30.0232C2.51271 29.2088 1.87063 28.2231 1.46095 27.135C1.05916 26.0972 0.783386 24.9111 0.703323 23.1764C0.62326 21.4343 0.605469 20.8798 0.605469 16.4511C0.605469 12.021 0.624743 11.4665 0.703323 9.72884C0.781903 7.99119 1.05916 6.80508 1.46095 5.76723C1.87123 4.67909 2.5138 3.69348 3.34391 2.87904C4.15794 2.04951 5.14305 1.40744 6.23061 0.997574C7.26846 0.595778 8.45457 0.320007 10.1893 0.239944H10.1907ZM23.5049 3.17557C21.785 3.09699 21.269 3.08068 16.9145 3.08068C12.56 3.08068 12.044 3.09699 10.3242 3.17557C8.7333 3.24822 7.87041 3.51361 7.29514 3.73749C6.53455 4.03402 5.99042 4.38541 5.4196 4.95622C4.87851 5.48264 4.46208 6.12348 4.20087 6.83177C3.97699 7.40703 3.7116 8.26993 3.63895 9.8608C3.56037 11.5807 3.54406 12.0966 3.54406 16.4511C3.54406 20.8057 3.56037 21.3216 3.63895 23.0415C3.7116 24.6323 3.97699 25.4952 4.20087 26.0705C4.46182 26.7777 4.87844 27.4197 5.4196 27.9461C5.94594 28.4872 6.58792 28.9038 7.29514 29.1648C7.87041 29.3887 8.7333 29.6541 10.3242 29.7267C12.044 29.8053 12.5585 29.8216 16.9145 29.8216C21.2705 29.8216 21.785 29.8053 23.5049 29.7267C25.0957 29.6541 25.9586 29.3887 26.5339 29.1648C27.2945 28.8683 27.8386 28.5169 28.4094 27.9461C28.9506 27.4197 29.3672 26.7777 29.6282 26.0705C29.852 25.4952 30.1174 24.6323 30.1901 23.0415C30.2687 21.3216 30.285 20.8057 30.285 16.4511C30.285 12.0966 30.2687 11.5807 30.1901 9.8608C30.1174 8.26993 29.852 7.40703 29.6282 6.83177C29.3316 6.07117 28.9802 5.52704 28.4094 4.95622C27.883 4.41517 27.2422 3.99875 26.5339 3.73749C25.9586 3.51361 25.0957 3.24822 23.5049 3.17557ZM14.8314 21.4788C15.9948 21.963 17.2902 22.0284 18.4964 21.6637C19.7026 21.299 20.7448 20.5268 21.4449 19.4791C22.145 18.4313 22.4597 17.173 22.3351 15.919C22.2106 14.6651 21.6545 13.4932 20.762 12.6037C20.193 12.0351 19.505 11.5997 18.7476 11.3288C17.9901 11.058 17.182 10.9585 16.3815 11.0374C15.581 11.1164 14.8079 11.3719 14.118 11.7855C13.428 12.199 12.8384 12.7605 12.3914 13.4293C11.9445 14.0981 11.6514 14.8577 11.5333 15.6534C11.4152 16.4491 11.4749 17.2611 11.7083 18.0309C11.9416 18.8007 12.3428 19.5092 12.8828 20.1054C13.4228 20.7016 14.0883 21.1707 14.8314 21.4788ZM10.9869 10.5235C11.7653 9.74512 12.6895 9.12764 13.7065 8.70636C14.7236 8.28508 15.8137 8.06825 16.9145 8.06825C18.0154 8.06825 19.1055 8.28508 20.1225 8.70636C21.1396 9.12764 22.0637 9.74512 22.8421 10.5235C23.6205 11.302 24.238 12.2261 24.6593 13.2431C25.0806 14.2602 25.2974 15.3503 25.2974 16.4511C25.2974 17.552 25.0806 18.6421 24.6593 19.6591C24.238 20.6762 23.6205 21.6003 22.8421 22.3787C21.27 23.9508 19.1378 24.834 16.9145 24.834C14.6912 24.834 12.559 23.9508 10.9869 22.3787C9.41482 20.8066 8.53163 18.6744 8.53163 16.4511C8.53163 14.2279 9.41482 12.0956 10.9869 10.5235ZM27.1566 9.31667C27.3495 9.1347 27.5039 8.91588 27.6107 8.67317C27.7176 8.43045 27.7746 8.16876 27.7784 7.90361C27.7823 7.63846 27.7329 7.37522 27.6332 7.12949C27.5336 6.88376 27.3856 6.66054 27.1981 6.47302C27.0105 6.28551 26.7873 6.13753 26.5416 6.03784C26.2959 5.93814 26.0326 5.88877 25.7675 5.89263C25.5023 5.8965 25.2406 5.95353 24.9979 6.06034C24.7552 6.16715 24.5364 6.32158 24.3544 6.51448C24.0005 6.88963 23.8068 7.38794 23.8143 7.90361C23.8218 8.41929 24.03 8.91173 24.3947 9.27641C24.7593 9.64108 25.2518 9.84928 25.7675 9.8568C26.2831 9.86431 26.7814 9.67056 27.1566 9.31667Z" fill="white"/>
</svg>
