<svg width="33" height="33" viewBox="0 0 33 33" fill="none" xmlns="http://www.w3.org/2000/svg">
<path d="M31.543 0.14209H1.53434C0.812663 0.14209 0.229614 0.725138 0.229614 1.44681V31.4555C0.229614 32.1771 0.812663 32.7602 1.53434 32.7602H31.543C32.2647 32.7602 32.8477 32.1771 32.8477 31.4555V1.44681C32.8477 0.725138 32.2647 0.14209 31.543 0.14209ZM26.9765 8.52902L25.3129 10.1232C25.1661 10.2333 25.0968 10.4127 25.1254 10.588V22.3183C25.0968 22.4977 25.1661 22.6771 25.3129 22.7831L26.9438 24.3773V24.7321H18.7567V24.3936L20.4406 22.7587C20.6078 22.5915 20.6078 22.5426 20.6078 22.2939V12.802L15.9189 24.6913H15.2869L9.83157 12.802V20.773C9.78264 21.1074 9.90088 21.4458 10.1374 21.6863L12.3309 24.3406V24.6954H6.10087V24.3406L8.29444 21.6863C8.41001 21.567 8.49602 21.4222 8.54558 21.2636C8.59515 21.105 8.60688 20.937 8.57985 20.773V11.5584C8.60839 11.3016 8.51053 11.0528 8.31482 10.8775L6.36589 8.52902V8.1743H12.4206L17.0932 18.4286L21.2071 8.18245H26.9765V8.52902Z" fill="white"/>
</svg>
