<svg xmlns="http://www.w3.org/2000/svg" version="1.1" x="0" y="0" width="270" height="70" viewBox="18.83 349.16 962.34 301.69">
    <polygon fill="#EEEDEF"
             points="637.51,489.1 637.51,472.65 644.03,472.65 644.03,466.83 623.49,466.83 623.49,472.65 630.01,472.65    630.01,489.1   "></polygon>
    <path fill="#EEEDEF"
          d="M801.5,483.5h2.03l3.78,5.6h8.01l-4.68-6.87c1.36-0.7,2.4-1.64,3.12-2.83c0.72-1.19,1.08-2.58,1.08-4.17    c0-1.7-0.41-3.18-1.24-4.45c-0.83-1.27-2-2.25-3.53-2.93c-1.53-0.68-3.32-1.02-5.38-1.02H794v22.26h7.51V483.5z M801.5,472.62    h2.73c1.02,0,1.78,0.23,2.29,0.68c0.51,0.46,0.76,1.1,0.76,1.93s-0.25,1.47-0.76,1.92c-0.51,0.46-1.27,0.68-2.29,0.68h-2.73    V472.62z"></path>
    <path fill="#EEEDEF"
          d="M707.17,466.83v12.25c0,3.33,0.96,5.92,2.86,7.76c1.91,1.84,4.57,2.77,7.98,2.77c3.41,0,6.07-0.92,7.98-2.77    c1.91-1.84,2.86-4.43,2.86-7.76v-12.25h-7.38v12.02c0,1.63-0.29,2.82-0.87,3.56c-0.58,0.74-1.43,1.11-2.53,1.11    s-1.95-0.37-2.53-1.11c-0.58-0.74-0.88-1.93-0.88-3.56v-12.02H707.17z"></path>
    <path fill="#EEEDEF"
          d="M687.36,440.13V391.8h-38.82c-3.89,0-7.19,1.37-9.91,4.11c-2.74,2.72-4.11,6.02-4.11,9.91v34.31h11.1v-34.38    c0-0.8,0.29-1.48,0.86-2.06c0.57-0.58,1.26-0.86,2.05-0.86h27.71v37.29H687.36z"></path>
    <path fill="#EEEDEF"
          d="M790.03,428.1c-0.66,0.66-1.45,0.99-2.35,0.99h-35.93v11.04H789c3.76,0,7.03-1.39,9.81-4.18    c2.67-2.67,4.01-6.02,4.01-10.04l-0.03-15.15h-40.71v-4.74c0-0.71,0.37-1.44,1.09-2.19c0.66-0.66,1.45-0.99,2.35-0.99h37.26V391.8    h-37.26c-3.76,0-7.03,1.39-9.81,4.18c-2.68,2.67-4.01,6.02-4.01,10.04v15.12h39.38v5.14C790.98,426.87,790.62,427.48,790.03,428.1    z"></path>
    <path fill="#EEEDEF"
          d="M979.88,411V391.8h-39.81c-3.89,0-7.19,1.39-9.91,4.18c-2.76,2.81-4.14,6.1-4.14,9.88v34.28h11.04v-15.18    h23.11l8.09,15.18h11.01l-8.06-16.11c1.72-0.68,3.28-1.73,4.67-3.15C978.54,418.18,979.88,414.89,979.88,411z M968.84,411    c0,0.86-0.25,1.55-0.76,2.06c-0.57,0.55-1.23,0.83-1.96,0.83h-29.07v-8.02c0-0.8,0.31-1.49,0.93-2.09    c0.57-0.62,1.27-0.93,2.09-0.93h28.77V411z"></path>
    <polygon fill="#EEEDEF"
             points="841.21,440.13 841.21,402.84 861.23,402.84 861.23,391.8 809.45,391.8 809.45,402.84 830.17,402.84    830.17,440.13   "></polygon>
    <path fill="#EEEDEF"
          d="M973.09,483.58c-0.45,0.2-1.19,0.3-2.23,0.3c-1.21,0-2.47-0.19-3.78-0.56c-1.31-0.37-2.5-0.86-3.56-1.48    l-2.42,5.47c1.12,0.7,2.56,1.26,4.31,1.67c1.75,0.41,3.55,0.62,5.39,0.62c2.23,0,4.12-0.33,5.68-1c1.56-0.67,2.73-1.57,3.51-2.7    c0.79-1.13,1.18-2.4,1.18-3.8c0-1.61-0.43-2.88-1.29-3.82c-0.86-0.93-1.87-1.61-3.04-2.02c-1.17-0.41-2.6-0.78-4.29-1.1    c-1.32-0.26-2.26-0.49-2.83-0.72c-0.57-0.22-0.86-0.56-0.86-1c0-0.93,0.96-1.4,2.89-1.4c1.95,0,4.02,0.55,6.2,1.65l2.26-5.44    c-1.12-0.64-2.42-1.12-3.9-1.45c-1.47-0.33-2.97-0.49-4.5-0.49c-2.23,0-4.12,0.33-5.68,0.99c-1.56,0.66-2.73,1.56-3.51,2.7    c-0.79,1.15-1.18,2.42-1.18,3.82c0,1.61,0.42,2.89,1.27,3.83c0.85,0.94,1.85,1.62,2.99,2.03c1.14,0.41,2.58,0.8,4.29,1.16    c1.33,0.28,2.29,0.53,2.88,0.76c0.58,0.23,0.88,0.58,0.88,1.05C973.76,483.07,973.54,483.38,973.09,483.58z"></path>
    <path fill="#EEEDEF"
          d="M919.38,440.13V391.8h-37.53c-3.78,0-7.08,1.42-9.91,4.28c-2.72,2.72-4.08,6.08-4.08,10.08v33.98h11.04    v-12.27h29.44v12.27H919.38z M878.9,416.83v-11.4c0-0.68,0.29-1.31,0.86-1.89c0.51-0.49,1.2-0.73,2.09-0.73h26.49v14.02H878.9z"></path>
    <polygon fill="#EEEDEF"
             points="897.49,472.49 897.49,466.83 879.39,466.83 879.39,489.1 897.9,489.1 897.9,483.43 886.77,483.43    886.77,480.51 896.18,480.51 896.18,475.1 886.77,475.1 886.77,472.49   "></polygon>
    <path fill="#EEEDEF"
          d="M745.07,415.97h-11.04v13.16h-29.01v-23.11c0-0.84,0.32-1.57,0.96-2.19c0.64-0.66,1.36-0.99,2.15-0.99h34.87    V391.8h-34.87c-3.87,0-7.19,1.39-9.98,4.18c-2.78,2.78-4.18,6.13-4.18,10.04v34.11h51.08V415.97z"></path>
    <path fill="#EEEDEF"
          d="M486.17,435.86c2.72-2.72,4.08-6.08,4.08-10.08V391.8h-39.12c-3.78,0-7.08,1.42-9.91,4.28    c-2.72,2.72-4.08,6.08-4.08,10.08v19.63c0,4,1.36,7.36,4.08,10.08c2.83,2.85,6.13,4.28,9.91,4.28h25.13    C480.04,440.13,483.35,438.71,486.17,435.86z M454.52,429.1v0.03h-3.38c-0.86,0-1.56-0.24-2.09-0.73    c-0.58-0.6-0.86-1.23-0.86-1.89v-21.08c0-0.66,0.29-1.29,0.86-1.89c0.53-0.49,1.22-0.73,2.09-0.73h3.38v0.03h24.7v23.67    c0,0.66-0.29,1.29-0.86,1.89c-0.53,0.49-1.23,0.73-2.09,0.73h-3.38v-0.03H454.52z"></path>
    <rect x="616.85" y="391.8" fill="#EEEDEF" width="11.04" height="48.33"></rect>
    <polygon fill="#EEEDEF"
             points="472.89,472.49 472.89,466.83 454.79,466.83 454.79,489.1 473.3,489.1 473.3,483.43 462.17,483.43    462.17,480.51 471.58,480.51 471.58,475.1 462.17,475.1 462.17,472.49   "></polygon>
    <polygon fill="#EEEDEF"
             points="374.22,466.83 366.15,466.83 375.56,489.1 382.94,489.1 392.36,466.83 384.98,466.83 379.54,479.84      "></polygon>
    <path fill="#EEEDEF"
          d="M430.51,440.13V391.8h-49.53c-3.89,0-7.19,1.37-9.91,4.11c-2.74,2.72-4.11,6.02-4.11,9.91v34.31h11.1v-34.38    c0-0.8,0.29-1.48,0.86-2.06c0.57-0.58,1.26-0.86,2.05-0.86h12.27v37.29h11.04v-37.29h15.12v37.29H430.51z"></path>
    <polygon fill="#EEEDEF"
             points="545.21,478.98 553.67,489.1 559.84,489.1 559.84,466.83 552.53,466.83 552.53,476.95 544.07,466.83    537.9,466.83 537.9,489.1 545.21,489.1   "></polygon>
    <path fill="#EEEDEF"
          d="M610.22,440.13V391.8H571.4c-3.89,0-7.19,1.37-9.91,4.11c-2.74,2.72-4.11,6.02-4.11,9.91v34.31h11.1v-34.38    c0-0.8,0.29-1.48,0.86-2.06c0.57-0.58,1.26-0.86,2.05-0.86h27.71v37.29H610.22z"></path>
    <path fill="#EEEDEF"
          d="M550.75,411V391.8h-39.81c-3.89,0-7.19,1.39-9.91,4.18c-2.76,2.81-4.14,6.1-4.14,9.88v34.28h11.04v-15.18    h23.11l8.09,15.18h11.01l-8.06-16.11c1.72-0.68,3.28-1.73,4.67-3.15C549.41,418.18,550.75,414.89,550.75,411z M539.71,411    c0,0.86-0.25,1.55-0.76,2.06c-0.57,0.55-1.23,0.83-1.96,0.83h-29.07v-8.02c0-0.8,0.31-1.49,0.93-2.09    c0.57-0.62,1.27-0.93,2.09-0.93h28.77V411z"></path>
    <path fill="#EEEDEF"
          d="M213.55,467.65L18.83,650.85l183.2-194.72c9.61-10.22,9.97-26.05,0.83-36.69l-60.34-70.28l71.12,61.06   c10.29,8.83,25.48,8.83,35.76,0l71.12-61.06l-61.06,71.12c-8.83,10.29-8.83,25.48,0,35.76l61.06,71.12l-70.28-60.34   C239.6,457.67,223.77,458.03,213.55,467.65z"></path>
</svg>
