<svg width="38" height="31" viewBox="0 0 38 31" fill="none" xmlns="http://www.w3.org/2000/svg">
<path d="M37.187 4.34384C35.8252 4.94728 34.3623 5.35501 32.8243 5.5393C34.4112 4.58977 35.5984 3.09533 36.1644 1.33483C34.6735 2.22039 33.0418 2.84373 31.3402 3.17775C30.196 1.95598 28.6803 1.14617 27.0286 0.874053C25.377 0.601933 23.6817 0.882725 22.2059 1.67284C20.7302 2.46295 19.5566 3.71817 18.8673 5.24362C18.1781 6.76907 18.0117 8.47941 18.3941 10.1091C15.3732 9.95741 12.4179 9.17222 9.72002 7.80447C7.02217 6.43672 4.64206 4.51698 2.73416 2.16985C2.0818 3.29517 1.70669 4.5999 1.70669 5.98943C1.70596 7.24032 2.01401 8.47206 2.60349 9.57535C3.19297 10.6786 4.04567 11.6194 5.08593 12.3141C3.87951 12.2757 2.6997 11.9497 1.64472 11.3633V11.4611C1.64459 13.2155 2.25147 14.916 3.36236 16.2739C4.47325 17.6318 6.01973 18.5636 7.73941 18.9111C6.62025 19.214 5.44691 19.2586 4.30798 19.0416C4.79317 20.5511 5.73828 21.8712 7.01099 22.817C8.2837 23.7627 9.82031 24.2868 11.4057 24.3159C8.71442 26.4286 5.39072 27.5746 1.96927 27.5696C1.36319 27.5697 0.757629 27.5343 0.155701 27.4635C3.62867 29.6965 7.67146 30.8816 11.8004 30.877C25.7772 30.877 33.418 19.3009 33.418 9.26102C33.418 8.93484 33.4098 8.6054 33.3952 8.27922C34.8814 7.20441 36.1643 5.87346 37.1838 4.34874L37.187 4.34384Z" fill="white"/>
</svg>
