<svg width="282" height="37" viewBox="0 0 282 37" fill="none" xmlns="http://www.w3.org/2000/svg">
<g clip-path="url(#clip0)">
<path d="M60.2332 12.869L52.5715 21.6283V26.8299C52.5715 27.0384 52.4631 27.1366 52.2583 27.1366H49.8489C49.6442 27.1366 49.5357 27.0384 49.5357 26.8299V21.6283L41.8982 12.869C41.6693 12.6482 41.8982 12.5255 42.103 12.5255H45.0303C45.136 12.5365 45.2382 12.5707 45.3297 12.6257C45.4212 12.6808 45.4999 12.7554 45.5603 12.8445L51.0777 19.1011L56.5951 12.8445C56.6604 12.7548 56.7434 12.68 56.8389 12.6251C56.9343 12.5701 57.0401 12.5362 57.1492 12.5255H60.0765C60.2332 12.5255 60.3657 12.6482 60.2332 12.869Z" fill="white"/>
<path d="M81.7365 16.7703V22.9043C81.7365 25.456 80.5319 27.2471 77.6166 27.2471H67.4613C64.6062 27.2471 63.3413 25.456 63.3413 22.9043V16.7703C63.3413 14.1941 64.546 12.4275 67.4613 12.4275H77.6286C80.4837 12.4275 81.7365 14.1941 81.7365 16.7703ZM78.6647 16.7703C78.6647 15.5435 78.3755 15.2246 77.6166 15.2246H67.4613C66.7144 15.2246 66.4132 15.5313 66.4132 16.7703V22.9043C66.4132 24.1311 66.7144 24.45 67.4613 24.45H77.6286C78.3876 24.45 78.6767 24.1556 78.6767 22.9043L78.6647 16.7703Z" fill="white"/>
<path d="M104.24 12.9918V22.9042C104.24 25.5418 103.035 27.2471 100.12 27.2471H90.3499C87.4346 27.2471 86.1938 25.5418 86.1938 22.9042V12.9918C86.1938 12.6728 86.3505 12.5256 86.6637 12.5256H88.808C88.8704 12.5149 88.9345 12.5196 88.9948 12.5393C89.0551 12.5589 89.11 12.593 89.1548 12.6386C89.1996 12.6842 89.233 12.74 89.2523 12.8015C89.2716 12.8629 89.2762 12.9281 89.2657 12.9918V22.9042C89.2657 24.131 89.6151 24.45 90.3499 24.45H100.072C100.806 24.45 101.108 24.1187 101.108 22.9042V12.9918C101.108 12.6728 101.276 12.5256 101.589 12.5256H103.734C103.8 12.5051 103.869 12.5024 103.936 12.5177C104.004 12.5329 104.066 12.5656 104.117 12.6126C104.168 12.6595 104.206 12.7192 104.227 12.7856C104.249 12.8521 104.253 12.9231 104.24 12.9918Z" fill="white"/>
<path d="M126.49 21.9228V23.1496C126.49 25.6891 125.189 27.1244 122.153 27.1244H109.251C109.046 27.1244 108.938 27.0263 108.938 26.8177V12.8446C108.932 12.8013 108.936 12.7571 108.949 12.7156C108.963 12.6741 108.986 12.6364 109.016 12.6055C109.047 12.5745 109.084 12.5512 109.124 12.5374C109.165 12.5235 109.208 12.5195 109.251 12.5256H121.996C124.755 12.5256 125.984 13.6543 125.984 16.6599C126.019 17.5846 125.733 18.4924 125.177 19.2239C125.588 19.5374 125.921 19.9451 126.149 20.4139C126.377 20.8827 126.494 21.3996 126.49 21.9228ZM122.02 15.3227H112.034V18.1689H122.008C122.635 18.1689 122.912 18.083 122.912 16.6599C122.912 15.2368 122.623 15.3227 121.996 15.3227H122.02ZM123.418 21.9228C123.418 21.0027 123.056 20.696 122.153 20.696H112.034V24.3764H122.141C123.044 24.3764 123.406 24.0943 123.406 23.1496L123.418 21.9228Z" fill="white"/>
<path d="M131.08 12.5256H133.597C133.64 12.5195 133.683 12.5235 133.724 12.5374C133.765 12.5512 133.802 12.5745 133.832 12.6055C133.863 12.6364 133.885 12.6741 133.899 12.7156C133.913 12.7571 133.917 12.8013 133.911 12.8446V26.83C133.911 27.0386 133.802 27.1367 133.597 27.1367H131.08C130.875 27.1367 130.766 27.0386 130.766 26.83V12.8446C130.76 12.8013 130.764 12.7571 130.778 12.7156C130.792 12.6741 130.814 12.6364 130.845 12.6055C130.875 12.5745 130.912 12.5512 130.953 12.5374C130.994 12.5235 131.037 12.5195 131.08 12.5256Z" fill="white"/>
<path d="M168.93 23.1619C168.81 25.6155 167.545 27.2471 164.858 27.2471H154.932C152.077 27.2471 150.812 25.456 150.812 22.9043V16.7703C150.812 14.1941 152.017 12.4275 154.932 12.4275H164.858C167.545 12.4275 168.81 14.01 168.93 16.5004C168.93 16.8071 168.81 16.9789 168.509 16.9789H166.352C166.289 16.9805 166.226 16.9694 166.167 16.9463C166.108 16.9231 166.054 16.8883 166.008 16.8439C165.962 16.7994 165.925 16.7462 165.9 16.6873C165.874 16.6284 165.86 16.5649 165.858 16.5004C165.858 15.4699 165.473 15.2736 164.858 15.2736H154.932C154.209 15.2736 153.884 15.6049 153.884 16.8194V22.9533C153.884 24.1801 154.209 24.4991 154.932 24.4991H164.858C165.473 24.4991 165.822 24.266 165.858 23.211C165.865 23.083 165.92 22.9625 166.012 22.8754C166.104 22.7883 166.226 22.7414 166.352 22.7448H168.509C168.81 22.6957 168.978 22.8675 168.93 23.1619Z" fill="white"/>
<path d="M191.204 27.1366H188.445C188.241 27.1366 188.132 27.0017 187.988 26.7686L186.638 24.5358H177.001L175.652 26.8299C175.507 27.063 175.423 27.198 175.218 27.198H172.435C172.231 27.198 172.05 27.063 172.182 26.8299L180.446 12.9304C180.579 12.7096 180.651 12.5869 180.844 12.5869H182.832C183.012 12.5869 183.097 12.7096 183.217 12.9304L191.481 26.8299C191.602 26.9894 191.409 27.1366 191.204 27.1366ZM185.06 21.751L181.82 16.2305L178.555 21.751H185.06Z" fill="white"/>
<path d="M212.707 16.6599V18.4019C212.707 20.8555 211.43 22.573 208.527 22.573H198.577V26.8791C198.583 26.9208 198.579 26.9634 198.566 27.0034C198.553 27.0435 198.531 27.0798 198.502 27.1097C198.473 27.1395 198.437 27.1619 198.398 27.1751C198.358 27.1883 198.317 27.192 198.276 27.1858H195.866C195.661 27.1858 195.553 27.0876 195.553 26.8791V12.8446C195.547 12.8013 195.551 12.7571 195.565 12.7156C195.578 12.6741 195.601 12.6364 195.631 12.6055C195.662 12.5745 195.699 12.5512 195.74 12.5374C195.78 12.5235 195.824 12.5195 195.866 12.5256H208.527C211.43 12.5256 212.707 14.1818 212.707 16.6599ZM209.636 16.6599C209.636 15.519 209.298 15.3227 208.527 15.3227H198.577V19.7269H208.527C209.298 19.7269 209.636 19.5183 209.636 18.3529V16.6599Z" fill="white"/>
<path d="M217.213 12.5256H219.731C219.773 12.5195 219.817 12.5235 219.857 12.5374C219.898 12.5512 219.935 12.5745 219.965 12.6055C219.996 12.6364 220.019 12.6741 220.032 12.7156C220.046 12.7571 220.05 12.8013 220.044 12.8446V26.83C220.044 27.0386 219.935 27.1367 219.731 27.1367H217.213C217.008 27.1367 216.9 27.0386 216.9 26.83V12.8446C216.894 12.8013 216.898 12.7571 216.911 12.7156C216.925 12.6741 216.948 12.6364 216.978 12.6055C217.009 12.5745 217.046 12.5512 217.086 12.5374C217.127 12.5235 217.17 12.5195 217.213 12.5256Z" fill="white"/>
<path d="M241.607 12.8446V15.016C241.607 15.2246 241.499 15.3227 241.294 15.3227H234.512V26.83C234.512 27.0386 234.403 27.1367 234.199 27.1367H231.789C231.585 27.1367 231.476 27.0386 231.476 26.83V15.3227H224.658C224.453 15.3227 224.345 15.2246 224.345 15.016V12.8446C224.339 12.8013 224.342 12.7571 224.356 12.7156C224.37 12.6741 224.393 12.6364 224.423 12.6055C224.453 12.5745 224.49 12.5512 224.531 12.5374C224.572 12.5235 224.615 12.5195 224.658 12.5256H241.294C241.337 12.5195 241.38 12.5235 241.421 12.5374C241.462 12.5512 241.499 12.5745 241.529 12.6055C241.559 12.6364 241.582 12.6741 241.596 12.7156C241.609 12.7571 241.613 12.8013 241.607 12.8446Z" fill="white"/>
<path d="M261.834 27.1366H259.063C258.858 27.1366 258.75 27.0017 258.617 26.7686L257.256 24.5358H247.619L246.258 26.8299C246.113 27.063 246.041 27.198 245.836 27.198H243.041C242.836 27.198 242.656 27.063 242.8 26.8299L251.064 12.9304C251.185 12.7096 251.269 12.5869 251.45 12.5869H253.437C253.618 12.5869 253.702 12.7096 253.823 12.9304L262.087 26.8299C262.219 26.9894 262.039 27.1366 261.834 27.1366ZM255.678 21.751L252.438 16.2305L249.185 21.751H255.678Z" fill="white"/>
<path d="M282 24.6586V26.83C282 27.0386 281.891 27.1367 281.687 27.1367H266.436C266.231 27.1367 266.122 27.0386 266.122 26.83V12.8446C266.116 12.8013 266.12 12.7571 266.134 12.7156C266.148 12.6741 266.17 12.6364 266.201 12.6055C266.231 12.5745 266.268 12.5512 266.309 12.5374C266.35 12.5235 266.393 12.5195 266.436 12.5256H268.845C268.887 12.5195 268.931 12.5235 268.972 12.5374C269.012 12.5512 269.049 12.5745 269.08 12.6055C269.11 12.6364 269.133 12.6741 269.147 12.7156C269.16 12.7571 269.164 12.8013 269.158 12.8446V24.3519H281.638C281.891 24.3519 282 24.45 282 24.6586Z" fill="white"/>
<path d="M9.33602 14.0223V21.6284C9.33602 23.1836 9.94269 24.6752 11.0226 25.7749C12.1025 26.8746 13.5671 27.4924 15.0943 27.4924C16.6215 27.4924 18.0862 26.8746 19.166 25.7749C20.2459 24.6752 20.8526 23.1836 20.8526 21.6284V14.0223V9.58129C20.8548 8.91383 20.6361 8.26509 20.2317 7.73979C19.8274 7.21448 19.261 6.84327 18.624 6.68606C16.3044 6.1136 13.8842 6.1136 11.5646 6.68606C10.9256 6.84375 10.3577 7.21679 9.95317 7.7446C9.5486 8.27241 9.33111 8.924 9.33602 9.59355V14.0223Z" fill="white"/>
<path d="M26.5026 11.5809C26.3551 11.4033 26.1577 11.2759 25.9371 11.2157C25.7164 11.1555 25.4829 11.1654 25.268 11.2442C25.053 11.3229 24.8668 11.4667 24.7344 11.6563C24.6019 11.8459 24.5296 12.0721 24.527 12.3047V21.6038C24.527 24.1547 23.5319 26.6011 21.7607 28.4048C19.9895 30.2085 17.5872 31.2219 15.0824 31.2219C12.5775 31.2219 10.1753 30.2085 8.40406 28.4048C6.63285 26.6011 5.6378 24.1547 5.6378 21.6038V1.85249C5.63781 1.36331 5.44782 0.893983 5.10928 0.546931C4.77075 0.199879 4.31116 0.00328079 3.83081 4.11719e-05H1.81902C1.57969 -0.00158914 1.34243 0.0452129 1.12101 0.13773C0.89959 0.230247 0.698423 0.366636 0.52919 0.538978C0.359956 0.71132 0.226027 0.916181 0.135179 1.14167C0.0443301 1.36715 -0.00162788 1.60877 -2.69779e-05 1.85249V21.3217C-0.029882 25.2389 1.39037 29.0238 3.97783 31.9225C6.56529 34.8212 10.1301 36.621 13.962 36.9632C16.9416 37.1893 19.9199 36.5099 22.52 35.011C25.12 33.512 27.2248 31.261 28.5677 28.543C29.9105 25.825 30.4311 22.7623 30.0635 19.7427C29.6959 16.7232 28.4566 13.8827 26.5026 11.5809Z" fill="white"/>
</g>
<defs>
<clipPath id="clip0">
<rect width="282" height="37" fill="white"/>
</clipPath>
</defs>
</svg>
