<svg width="40" height="29" viewBox="0 0 40 29" fill="none" xmlns="http://www.w3.org/2000/svg">
<path d="M38.6785 5.10394C38.4557 4.26528 38.0188 3.50048 37.4116 2.88606C36.8044 2.27165 36.0482 1.82919 35.2187 1.60294C32.1651 0.772949 19.9246 0.772949 19.9246 0.772949C19.9246 0.772949 7.68403 0.772949 4.63046 1.59853C3.80053 1.82404 3.04393 2.26626 2.43662 2.88078C1.82932 3.49531 1.3927 4.2605 1.17061 5.09952C0.353699 8.18993 0.353699 14.6356 0.353699 14.6356C0.353699 14.6356 0.353699 21.0813 1.17061 24.1673C1.62056 25.8715 2.94858 27.2136 4.63046 27.6683C7.68403 28.4983 19.9246 28.4983 19.9246 28.4983C19.9246 28.4983 32.1651 28.4983 35.2187 27.6683C36.9049 27.2136 38.2285 25.8715 38.6785 24.1673C39.4954 21.0813 39.4954 14.6356 39.4954 14.6356C39.4954 14.6356 39.4954 8.18993 38.6785 5.10394ZM16.0366 20.5516V8.71971L26.1715 14.5915L16.0366 20.5516Z" fill="white"/>
</svg>
